<svg xmlns="http://www.w3.org/2000/svg"
    xmlns:xlink="http://www.w3.org/1999/xlink">
    <symbol id="ueg-logo-original" xmlns="http://www.w3.org/2000/svg"
        viewBox="0 0 253.72 193.53">
        <rect x="-41.76" y="-39.04" width="334.62" height="271.34"
            fill="none" />
        <path
            d="M88.49,112.19c0-27.73,19.79-44.84,40.32-44.84,24.35,0,36.41,17.7,36.41,41a57.84,57.84,0,0,1-1.05,11.19H113c2.27,12.4,10.76,18.09,22.17,18.09,6.47,0,12.28-2,18.49-5.59l8.37,15.27A55.64,55.64,0,0,1,131.73,157C107.37,157,88.49,140.48,88.49,112.19Zm55.1-9.37c0-9.4-4.1-16.17-14.21-16.17-8,0-14.91,5.37-16.63,16.17Zm-87.65,52V142.93c-7.13,8.5-15.14,13.91-26.79,13.91-18.57,0-26.49-13.11-26.49-34.45v-53H28v49.78c0,12.29,3.3,16.13,10.6,16.13,6.36,0,15.18-7.9,15.18-13.16V69.37H79.06v85.4ZM209.6,67.35c-18.4,0-35.35,10.39-35.35,30.9v5.94c0,9.5,3.5,16.51,9.21,21.24-4,3.65-7.07,7.95-7.07,13.5,0,13.06,11.49,15.84,20.72,15.84h22.51c8.54,0,10.8,1.74,10.8,7.67,0,5.58-5.23,10.1-16.55,10.1h-1.93c-7.14,0-16-2.6-16-9.44v-4.36h-21.6v4.91c0,20.22,18.46,26.31,37.1,26.31h1.93c16.2,0,37.27-6.79,37.27-28.91,0-15.68-11-23.34-28-23.34H201.67c-2.75,0-5.43,0-5.43-2.94a4.71,4.71,0,0,1,1.09-2.94,51.17,51.17,0,0,0,11.32,1.08c5.07,0,18.31-.23,27.17-9.08,4.66-4.66,7.44-11.17,7.44-19.64V99.1a22.44,22.44,0,0,0-2.85-11.17h10.21V67.35Zm-11.67,30.9c0-9.14,4.95-13.9,11.67-13.9s11.67,4.79,11.67,13.9v2.87c0,9.37-5,14.25-11.67,14.25s-11.67-4.88-11.67-14.25ZM13,15.47c0,3.82-1.48,5.08-3.63,5.08s-3.55-1.26-3.55-5.08V5.37H2.67v9.86c0,5.77,2.6,8,6.67,8S16,21,16,15.23V5.37H13Zm10.34-.23c0-2-.25-4.07-.4-5.93H23l1.81,3.74,5.46,9.88h3.2V5.37h-3V13c0,1.95.24,4.18.39,6h-.1L29,15.24,23.54,5.37h-3.2V22.93h3ZM41.07,5.37H38V22.93h3.11Zm8,17.56h3.12V8h5.07V5.37H44V8h5.07Zm22-2.62H63.3v-5.2h6.32V12.49H63.3V8h7.46V5.37H60.19V22.93H71Zm16.85-6.23c0-5.81-3.18-8.71-8.56-8.71H74.63V22.93h4.85C84.7,22.93,87.88,19.89,87.88,14.08ZM77.75,20.41V7.9h1.36c3.54,0,5.57,1.86,5.57,6.18s-2,6.33-5.57,6.33Zm29.87-.1H99.9v-5.2h6.32V12.49H99.9V8h7.46V5.37H96.78V22.93h10.84Zm10.2,3c4.07,0,6.62-2.26,6.62-8V5.37h-3v10.1c0,3.82-1.49,5.08-3.63,5.08s-3.56-1.26-3.56-5.08V5.37h-3.12v9.86C111.14,21,113.74,23.26,117.82,23.26ZM141.2,10.58c0-3.92-2.81-5.21-6.46-5.21h-5.92V22.93h3.11V16.07h2.68l3.78,6.86h3.5l-4.2-7.32A4.94,4.94,0,0,0,141.2,10.58Zm-9.27-2.72h2.48c2.41,0,3.72.7,3.72,2.72s-1.31,3-3.72,3h-2.48Zm19.6-2.81c-4.57,0-7.74,3.35-7.74,9s3.17,9.18,7.74,9.18,7.75-3.49,7.75-9.18S156.11,5.05,151.53,5.05Zm0,15.5c-2.76,0-4.54-2.52-4.54-6.47s1.78-6.32,4.54-6.32,4.55,2.38,4.55,6.32S154.29,20.55,151.53,20.55Zm14.39-4.07h2.53c3.78,0,6.68-1.78,6.68-5.69,0-4.07-2.89-5.42-6.79-5.42h-5.53V22.93h3.11Zm0-8.62h2.16c2.61,0,4,.74,4,2.93s-1.25,3.2-3.87,3.2h-2.27Zm15.63,7.25h6.32V12.49h-6.32V8H189V5.37H178.43V22.93h10.84V20.31h-7.72Zm19-9.74h-3.66l-5.72,17.56h3.18l1.37-4.75h5.89l1.36,4.75h3.3Zm-4.12,10.36.61-2.14c.56-1.86,1.08-3.85,1.56-5.79h.11c.52,1.93,1,3.93,1.59,5.79l.61,2.14Zm15-.49c0-2-.24-4.07-.39-5.93h.1l1.82,3.74,5.46,9.88h3.2V5.37h-3V13c0,1.95.25,4.18.4,6h-.11l-1.81-3.75L211.6,5.37h-3.2V22.93h3ZM9.61,42.83h3.31v3.8a4,4,0,0,1-2.5.77C6.89,47.4,5,45,5,41s2.1-6.36,5.21-6.36a4.75,4.75,0,0,1,3.55,1.52l1.66-2a7.19,7.19,0,0,0-5.3-2.22c-4.68,0-8.32,3.42-8.32,9.16s3.54,9,8.27,9A8,8,0,0,0,15.71,48V40.28H9.61ZM23.06,32.22,17.33,49.78h3.18L21.88,45h5.89l1.37,4.75h3.29L26.71,32.22Zm-.47,10.36.62-2.14c.56-1.86,1.07-3.85,1.55-5.79h.11c.52,1.93,1,3.93,1.59,5.79l.61,2.14Zm19.89-2.43-2.37-1c-1.45-.6-2.79-1.11-2.79-2.49s1.08-2.06,2.75-2.06a5.62,5.62,0,0,1,3.81,1.51l1.6-2a7.69,7.69,0,0,0-5.41-2.24c-3.43,0-5.9,2.15-5.9,5,0,2.57,1.82,3.94,3.55,4.66l2.4,1c1.6.68,2.73,1.14,2.73,2.58s-1.08,2.27-3.06,2.27a7,7,0,0,1-4.58-2L33.4,47.53a9,9,0,0,0,6.32,2.58c4,0,6.31-2.38,6.31-5.22C46,42.34,44.57,41,42.48,40.15Zm5.23-5.31h5.07V49.78h3.11V34.84H61V32.22H47.71Zm28,2.59c0-3.92-2.81-5.21-6.46-5.21H63.36V49.78h3.11V42.92h2.68l3.78,6.86h3.5l-4.2-7.32A4.94,4.94,0,0,0,75.74,37.43Zm-9.27-2.72H69c2.41,0,3.72.7,3.72,2.72s-1.31,3-3.72,3H66.47Zm19.6-2.81c-4.57,0-7.74,3.35-7.74,9s3.17,9.18,7.74,9.18,7.75-3.49,7.75-9.18S90.65,31.9,86.07,31.9Zm0,15.5c-2.76,0-4.54-2.52-4.54-6.47s1.78-6.32,4.54-6.32,4.55,2.38,4.55,6.32S88.83,47.4,86.07,47.4ZM100.46,42h6.32V39.34h-6.32v-4.5h7.46V32.22H97.35V49.78h10.84V47.16h-7.73ZM122,39.85c0,1.95.24,4.18.39,6h-.1l-1.82-3.75L115,32.22h-3.2V49.78h3V42.09c0-2-.25-4.07-.4-5.93h.11l1.81,3.74,5.46,9.88h3.2V32.22h-3Zm5.9-5H133V49.78h3.12V34.84h5.07V32.22H127.88ZM147.18,42h6.32V39.34h-6.32v-4.5h7.46V32.22H144.07V49.78h10.84V47.16h-7.73Zm23.18-4.53c0-3.92-2.81-5.21-6.47-5.21H158V49.78h3.11V42.92h2.68l3.78,6.86h3.5l-4.2-7.32A4.94,4.94,0,0,0,170.36,37.43Zm-9.27-2.72h2.48c2.41,0,3.72.7,3.72,2.72s-1.31,3-3.72,3h-2.48Zm19.6-2.81c-4.57,0-7.74,3.35-7.74,9s3.17,9.18,7.74,9.18,7.75-3.49,7.75-9.18S185.27,31.9,180.69,31.9Zm0,15.5c-2.76,0-4.54-2.52-4.54-6.47s1.78-6.32,4.54-6.32,4.55,2.38,4.55,6.32S183.45,47.4,180.69,47.4Zm14.39-15.18H192V49.78h10.41V47.16h-7.3Zm16.65-.32c-4.58,0-7.74,3.35-7.74,9s3.16,9.18,7.74,9.18,7.75-3.49,7.75-9.18S216.31,31.9,211.73,31.9Zm0,15.5c-2.76,0-4.54-2.52-4.54-6.47s1.78-6.32,4.54-6.32,4.54,2.38,4.54,6.32S214.49,47.4,211.73,47.4Zm17.59-4.57h3.31v3.8a3.94,3.94,0,0,1-2.5.77c-3.53,0-5.38-2.43-5.38-6.43s2.09-6.36,5.21-6.36a4.74,4.74,0,0,1,3.54,1.52l1.67-2a7.23,7.23,0,0,0-5.31-2.22c-4.67,0-8.32,3.42-8.32,9.16s3.54,9,8.28,9a8,8,0,0,0,5.6-2.09V40.28h-6.1Zm18.1-10.61s-3,7-3.53,8.35h-.11l-3.47-8.35H237l5.28,11v6.53h3.12V43.25l5.28-11Z" />
    </symbol>
    <symbol id="ueg-logo" xmlns="http://www.w3.org/2000/svg"
        viewBox="0 0 247.96 122.61">
        <path
            d="M87.77,54.72c0-27.73,19.79-44.84,40.32-44.84,24.35,0,36.41,17.7,36.41,41a57.75,57.75,0,0,1-1.05,11.19H112.31c2.27,12.4,10.76,18.1,22.17,18.1,6.47,0,12.28-2,18.49-5.6l8.37,15.27A55.65,55.65,0,0,1,131,99.5C106.65,99.5,87.77,83,87.77,54.72Zm55.1-9.37c0-9.39-4.1-16.16-14.21-16.16-8,0-14.91,5.37-16.63,16.16Zm-87.65,52V85.46C48.09,94,40.08,99.37,28.43,99.37c-18.57,0-26.49-13.1-26.49-34.45v-53H27.25V61.68c0,12.29,3.3,16.14,10.6,16.14C44.21,77.82,53,69.91,53,64.65V11.91h25.3v85.4ZM208.89,9.88c-18.41,0-35.36,10.39-35.36,30.91v5.93c0,9.5,3.5,16.52,9.21,21.24-4,3.65-7.07,8-7.07,13.5,0,13.06,11.49,15.85,20.72,15.85H218.9c8.54,0,10.8,1.74,10.8,7.66,0,5.58-5.22,10.1-16.55,10.1h-1.93c-7.14,0-16-2.59-16-9.43v-4.36H173.6v4.91c0,20.21,18.46,26.31,37.1,26.31h1.94c16.19,0,37.26-6.8,37.26-28.92,0-15.67-11-23.34-28-23.34H201c-2.74,0-5.43,0-5.43-2.93a4.76,4.76,0,0,1,1.09-3,51.36,51.36,0,0,0,11.33,1.09c5.06,0,18.3-.23,27.16-9.09,4.66-4.66,7.44-11.16,7.44-19.64V41.64a22.56,22.56,0,0,0-2.84-11.18h10.2V9.88ZM197.22,40.79c0-9.14,4.94-13.9,11.67-13.9s11.67,4.79,11.67,13.9v2.87c0,9.36-5,14.24-11.67,14.24S197.22,53,197.22,43.66Z"
            transform="translate(-1.94 -9.88)" />
    </symbol>
    <symbol id="education-logo" xmlns="http://www.w3.org/2000/svg"
        viewBox="0 0 695.06 125.13">
        <path
            d="M58.29,65.59c-20.1,0-39.36,17.11-39.36,44.86,0,28.16,18.5,44.71,42.07,44.71a53.08,53.08,0,0,0,29.28-9.25l-6.82-12.44c-6.25,3.89-12.51,6.19-19.82,6.19-13.76,0-23.5-8.63-25.17-23.79H92.68a53.06,53.06,0,0,0,.87-9.74C93.55,82.28,81.38,65.59,58.29,65.59Zm-20,36.65C40,88.54,48.79,81.1,58.74,81.1c11.68,0,17.52,8,17.52,21.14Z"
            transform="translate(-18.93 -30.05)" fill="#007fff" />
        <path
            d="M161.8,61.21,162.57,75c-6.61-5.77-12.73-9.39-22.39-9.39-18.71,0-36.17,17-36.17,44.86,0,28.16,13.77,44.71,35,44.71,9.18,0,18-5,24.27-11.33h.58l1.53,9.25h16.47V30.26h-20Zm0,67.8c-5.63,6.68-11.19,9.6-17.8,9.6-12.31,0-19.4-9.8-19.4-28.37,0-17.81,9-28.1,19.82-28.1,5.77,0,11.54,1.88,17.38,7.1Z"
            transform="translate(-18.93 -30.05)" fill="#007fff" />
        <path
            d="M251.58,126.16c-6.46,8.35-11.4,11.83-18.91,11.83-9.25,0-13.28-5.29-13.28-19.34v-51h-20V121.2c0,21.55,8,33.93,26.29,33.93,11.68,0,20-5.77,27.47-14.67h.55l1.53,12.59h16.41V67.68h-20Z"
            transform="translate(-18.93 -30.05)" fill="#007fff" />
        <path
            d="M329.4,138.84c-13.28,0-22.67-11.27-22.67-28.37S316.26,82,330,82c5.36,0,9.67,2.3,14.19,6.26l9.73-13a36.43,36.43,0,0,0-25-9.6c-22.74,0-42.84,16.41-42.84,44.86,0,28.3,17.87,44.71,41.17,44.71a42.2,42.2,0,0,0,27.88-10.5L347,131.47C342.2,135.55,336.08,138.84,329.4,138.84Z"
            transform="translate(-18.93 -30.05)" fill="#007fff" />
        <path
            d="M402.42,65.59c-13.56,0-25.66,5.25-35.05,11.25l7.38,13.35c7.51-4.59,15.5-8.41,24-8.41,11.54,0,15.23,7.64,15.51,16.82-35.05,3.76-50.21,13.29-50.21,31.58,0,14.88,10.29,25,25.24,25,10.08,0,18.85-5,26.5-11.54h.55l1.53,9.46h16.42V102.52C434.28,78.74,423.77,65.59,402.42,65.59Zm11.83,64.61c-6.33,5.84-11.62,9.25-18.57,9.25-7.16,0-12.31-3.31-12.31-10.85,0-8.63,7.72-14.68,30.88-17.6Z"
            transform="translate(-18.93 -30.05)" fill="#007fff" />
        <path
            d="M490,139.24c-8.21,0-12.1-4.94-12.1-15V83.6h21.76V67.68H477.86V44.38h-16.6l-2.4,23.3-13.21.9v15h12.21v40.69c0,18.42,7.3,30.87,27,30.87A55.59,55.59,0,0,0,502.32,152l-3.46-14.72A26.85,26.85,0,0,1,490,139.24Z"
            transform="translate(-18.93 -30.05)" fill="#007fff" />
        <rect x="495.21" y="37.62" width="20.03" height="85.4" fill="#007fff" />
        <ellipse cx="505.3" cy="11.34" rx="12.38" ry="11.34" fill="#007fff" />
        <path
            d="M587.72,65.59c-21.28,0-40.61,16.41-40.61,44.86,0,28.3,19.33,44.71,40.61,44.71s40.61-16.41,40.61-44.71C628.33,82,609,65.59,587.72,65.59Zm0,73.23c-12.52,0-20-11.27-20-28.37s7.51-28.52,20-28.52,20,11.41,20,28.52-7.48,28.39-20,28.39Z"
            transform="translate(-18.93 -30.05)" fill="#007fff" />
        <path
            d="M687.76,65.59c-11.68,0-20.38,6.19-28,13.63h-.55l-1.53-11.54H641.23v85.4h20V93.41c7-7,12-10.64,19.47-10.64C690,82.77,694,88.05,694,102.1v51h20V99.53C714.05,78,706.05,65.59,687.76,65.59Z"
            transform="translate(-18.93 -30.05)" fill="#007fff" />
    </symbol>
    <symbol id="publications-logo" xmlns="http://www.w3.org/2000/svg"
        viewBox="0 0 507.38 158.96">
        <path
            d="M47.36,33.92C40.26,33.92,35,38.51,35,45.25s5.28,11.34,12.38,11.34,12.38-4.72,12.38-11.34S54.45,33.92,47.36,33.92Z"
            transform="translate(-16.41 -33.92)" fill="#ff0061" />
        <path
            d="M37.27,161.67c0,9.94-2.15,15.23-9.8,15.23a25.34,25.34,0,0,1-7.37-1.32l-3.69,14.95a38,38,0,0,0,13.84,2.34c20.24,0,27.05-13.43,27.05-31.51V69.52h-20Z"
            transform="translate(-16.41 -33.92)" fill="#ff0061" />
        <path
            d="M110.81,69.46c-21.28,0-40.61,16.41-40.61,44.85S89.53,159,110.81,159s40.62-16.42,40.62-44.72S132.09,69.46,110.81,69.46Zm0,73.22c-12.51,0-20-11.26-20-28.37s7.51-28.51,20-28.51,20,11.4,20,28.51S123.33,142.68,110.81,142.68Z"
            transform="translate(-16.41 -33.92)" fill="#ff0061" />
        <path
            d="M215.58,130c-6.47,8.34-11.38,11.84-18.92,11.84-9.24,0-13.28-5.29-13.28-19.33v-51h-20v53.55c0,21.56,8,33.94,26.29,33.94,11.68,0,20-5.78,27.47-14.68h.56l1.5,12.59h16.41V71.54h-20Z"
            transform="translate(-16.41 -33.92)" fill="#ff0061" />
        <path
            d="M272.54,86.77H272l-1.53-15.23H254v85.4h20V104.87c5.16-13,13.38-17.68,20.16-17.68A29,29,0,0,1,303,88.58l3.47-17.39c-2.57-1.18-5.32-1.73-9.66-1.73C287.66,69.46,278.62,75.64,272.54,86.77Z"
            transform="translate(-16.41 -33.92)" fill="#ff0061" />
        <path
            d="M363.67,69.46c-11.68,0-20.37,6.18-28,13.63h-.56l-1.53-11.55H317.2v85.4h20V97.27c7-7,12-10.64,19.47-10.64,9.25,0,13.28,5.29,13.28,19.34v51h20V103.39C390,81.87,382,69.46,363.67,69.46Z"
            transform="translate(-16.41 -33.92)" fill="#ff0061" />
        <path
            d="M443.09,69.46c-13.56,0-25.66,5.28-35,11.19L415.41,94c7.51-4.59,15.51-8.41,24-8.41,11.55,0,15.24,7.65,15.51,16.83-35,3.75-50.21,13.28-50.21,31.57,0,14.88,10.3,25,25.25,25,10.08,0,18.84-5,26.49-11.55H457l1.53,9.46H475V106.38C474.94,82.6,464.44,69.46,443.09,69.46Zm11.82,64.6c-6.32,5.84-11.61,9.25-18.56,9.25-7.17,0-12.31-3.3-12.31-10.85,0-8.62,7.72-14.67,30.87-17.59Z"
            transform="translate(-16.41 -33.92)" fill="#ff0061" />
        <path
            d="M521.26,142.34a12.21,12.21,0,0,1-3.13.34c-2.09,0-4.31-1.73-4.31-6.67V34.13h-20V135c0,14.89,5.21,24.07,19.4,24.07a28.22,28.22,0,0,0,10.57-1.74Z"
            transform="translate(-16.41 -33.92)" fill="#ff0061" />
    </symbol>
    <symbol id="quality-of-care-logo" xmlns="http://www.w3.org/2000/svg"
        viewBox="0 0 997.73 159.98">
        <path
            d="M78.71,81.69h-.56c-7.16-7-14-10.36-23.57-10.36-18.71,0-36.16,17-36.16,44.86,0,28.16,13.76,44.71,35.05,44.71,8.76,0,17.31-4.59,23.5-10.64l-.76,14.27v28.13h20V73.42H80.45Zm-2.5,53.06c-5.64,6.68-11.2,9.6-17.81,9.6-12.31,0-19.4-9.8-19.4-28.37,0-17.81,9-28.1,19.82-28.1,5.77,0,11.54,1.88,17.39,7.1Z"
            transform="translate(-18.42 -33.89)" fill="#f7ca11" />
        <path
            d="M167.73,131.9c-6.47,8.35-11.41,11.83-18.92,11.83-9.25,0-13.28-5.29-13.28-19.34v-51h-20v53.54c0,21.56,8,33.94,26.29,33.94,11.68,0,20-5.77,27.47-14.67h.55l1.53,12.59h16.41V73.42h-20Z"
            transform="translate(-18.42 -33.89)" fill="#f7ca11" />
        <path
            d="M243.46,71.33c-13.56,0-25.66,5.29-35,11.2l7.37,13.35c7.51-4.59,15.51-8.42,24-8.42,11.55,0,15.23,7.65,15.51,16.83-35.11,3.76-50.3,13.29-50.3,31.58,0,14.88,10.29,25,25.24,25,10.09,0,18.85-5,26.5-11.54h.56l1.53,9.46h16.41V108.26C275.31,84.47,264.81,71.33,243.46,71.33Zm11.82,64.61c-6.33,5.84-11.61,9.25-18.57,9.25-7.16,0-12.31-3.31-12.31-10.85,0-8.63,7.72-14.68,30.88-17.6Z"
            transform="translate(-18.42 -33.89)" fill="#f7ca11" />
        <path
            d="M318.5,144.53c-2.09,0-4.32-1.74-4.32-6.68V36h-20V136.84c0,14.88,5.22,24.06,19.41,24.06a27.83,27.83,0,0,0,10.57-1.74l-2.51-14.95A11.52,11.52,0,0,1,318.5,144.53Z"
            transform="translate(-18.42 -33.89)" fill="#f7ca11" />
        <path
            d="M347.88,35.79c-7.1,0-12.38,4.59-12.38,11.34s5.28,11.33,12.38,11.33,12.38-4.72,12.38-11.33S355,35.79,347.88,35.79Z"
            transform="translate(-18.42 -33.89)" fill="#f7ca11" />
        <rect x="319.38" y="39.52" width="20.03" height="85.4" fill="#f7ca11" />
        <path
            d="M415,145c-8.21,0-12.1-4.94-12.1-15V89.34H424.7V73.42H402.89V50.12H386.26l-2.36,23.3-13.21.9v15h12.17V130c0,18.42,7.3,30.87,27,30.87a55.54,55.54,0,0,0,17.46-3.13L423.91,143A26.74,26.74,0,0,1,415,145Z"
            transform="translate(-18.42 -33.89)" fill="#f7ca11" />
        <path
            d="M478.3,115.28c-2.22,7.79-4.38,16.21-6.53,24.13H471c-2.5-8.13-4.94-16.55-7.51-24.13L448.82,73.42H428.51l33.59,84.35-1.6,5.36c-2.85,8.55-8.07,14.67-17,14.67a23.68,23.68,0,0,1-6.12-1.18l-3.68,15.51a33.34,33.34,0,0,0,11.12,1.74c18.64,0,27.61-11.93,34.71-31.16L510.4,73.42H491Z"
            transform="translate(-18.42 -33.89)" fill="#f7ca11" />
        <path
            d="M586.27,71.33c-21.28,0-40.61,16.41-40.61,44.86S565,160.9,586.27,160.9s40.61-16.41,40.61-44.71S607.55,71.33,586.27,71.33Zm0,73.23c-12.52,0-20-11.27-20-28.37s7.51-28.52,20-28.52,20,11.41,20,28.52-7.48,28.34-20,28.34Z"
            transform="translate(-18.42 -33.89)" fill="#f7ca11" />
        <path
            d="M646.67,64.58v9l-11.48.83v15h11.48v69.48h20V89.34h16.69V73.42H666.7V64.24c0-9.91,3.75-14.4,10.85-14.4a23.76,23.76,0,0,1,9.25,2l3.82-15a43.44,43.44,0,0,0-15.65-3C654.81,33.92,646.67,46.89,646.67,64.58Z"
            transform="translate(-18.42 -33.89)" fill="#f7ca11" />
        <path
            d="M762,144.53c-13.28,0-22.67-11.27-22.67-28.37s9.53-28.52,23.3-28.52c5.35,0,9.67,2.3,14.19,6.26l9.73-13a36.46,36.46,0,0,0-25-9.6c-22.74,0-42.84,16.41-42.84,44.86,0,28.3,17.87,44.71,41.17,44.71a42.15,42.15,0,0,0,27.88-10.5l-8.13-13.21C774.87,141.29,768.75,144.53,762,144.53Z"
            transform="translate(-18.42 -33.89)" fill="#f7ca11" />
        <path
            d="M835.09,71.33c-13.56,0-25.66,5.29-35,11.2l7.37,13.35c7.52-4.59,15.51-8.42,24-8.42,11.54,0,15.23,7.65,15.51,16.83-35,3.76-50.21,13.29-50.21,31.58,0,14.88,10.29,25,25.24,25,10.08,0,18.85-5,26.5-11.54H849l1.53,9.46h16.37V108.26C866.94,84.47,856.44,71.33,835.09,71.33Zm11.83,64.61c-6.33,5.84-11.62,9.25-18.57,9.25-7.17,0-12.31-3.31-12.31-10.85,0-8.63,7.72-14.68,30.88-17.6Z"
            transform="translate(-18.42 -33.89)" fill="#f7ca11" />
        <path
            d="M904.29,88.65h-.56L902.2,73.42H885.79v85.4h20V106.73c5.14-13,13.35-17.67,20.17-17.67a29,29,0,0,1,8.76,1.39l3.48-17.38c-2.58-1.18-5.32-1.74-9.67-1.74C919.41,71.33,910.37,77.53,904.29,88.65Z"
            transform="translate(-18.42 -33.89)" fill="#f7ca11" />
        <path
            d="M1016.15,111.87c0-23.85-12.17-40.54-35.26-40.54-20.1,0-39.36,17.11-39.36,44.86,0,28.16,18.49,44.71,42.07,44.71a53,53,0,0,0,29.28-9.25L1006,139.2c-6.26,3.9-12.51,6.19-19.82,6.19-13.77,0-23.5-8.62-25.17-23.78h54.21A52.14,52.14,0,0,0,1016.15,111.87ZM960.86,108c1.74-13.7,10.5-21.14,20.45-21.14,11.68,0,17.52,8,17.52,21.14Z"
            transform="translate(-18.42 -33.89)" fill="#f7ca11" />
    </symbol>
    <symbol id="research-logo" xmlns="http://www.w3.org/2000/svg"
        viewBox="0 0 595.94 124.9">
        <path
            d="M35.63,82h-.56L33.4,64.72H17.13v87.42h20V100.05c5.15-13,13.35-17.66,20.17-17.66a29.08,29.08,0,0,1,8.76,1.39L69.57,66.4c-2.58-1.19-5.32-1.74-9.67-1.74C50.76,64.66,41.72,70.85,35.63,82Z"
            transform="translate(-17.13 -29.33)" fill="#f76e08" />
        <path
            d="M112.23,64.66c-20.1,0-39.36,17.1-39.36,44.85,0,28.17,18.5,44.72,42.07,44.72A53,53,0,0,0,144.22,145l-6.82-12.45c-6.25,3.9-12.51,6.19-19.82,6.19-13.76,0-23.5-8.62-25.17-23.78h54.21a52.08,52.08,0,0,0,.87-9.74C147.49,81.35,135.32,64.66,112.23,64.66Zm-20,36.65c1.74-13.7,10.5-21.15,20.45-21.15,11.68,0,17.52,8,17.52,21.15Z"
            transform="translate(-17.13 -29.33)" fill="#f76e08" />
        <path
            d="M195.72,101.93c-9.25-3.41-17.88-6-17.88-12.72,0-5.36,4.07-9.46,12.66-9.46,6.71,0,12.73,3.06,18.71,7.44l9.18-12.31c-7-5.39-16.49-10.22-28.38-10.22-19.12,0-31.08,10.71-31.08,25.52,0,14.26,12.79,20.69,24,24.9,9.11,3.47,18.36,6.67,18.36,13.83,0,5.85-4.38,10.23-13.7,10.23-8.66,0-16-3.62-23.58-9.53l-9.32,12.73c8.35,6.88,20.66,11.89,32.34,11.89,21.56,0,33.17-11.82,33.17-26.5C220.19,111.81,207.26,106.24,195.72,101.93Z"
            transform="translate(-17.13 -29.33)" fill="#f76e08" />
        <path
            d="M268.35,64.66c-20.09,0-39.36,17.1-39.36,44.85,0,28.17,18.5,44.72,42.08,44.72A53,53,0,0,0,300.34,145l-6.81-12.45c-6.26,3.9-12.52,6.19-19.82,6.19-13.77,0-23.51-8.62-25.18-23.78h54.21a51.24,51.24,0,0,0,.87-9.74C303.61,81.35,291.44,64.66,268.35,64.66Zm-20,36.65c1.73-13.7,10.5-21.15,20.44-21.15,11.69,0,17.53,8,17.53,21.15Z"
            transform="translate(-17.13 -29.33)" fill="#f76e08" />
        <path
            d="M353.09,64.66c-13.56,0-25.66,5.28-35,11.19l7.37,13.36c7.51-4.59,15.51-8.42,24-8.42,11.54,0,15.23,7.65,15.5,16.83-35.05,3.76-50.21,13.28-50.21,31.57,0,14.89,10.3,25,25.25,25,10.08,0,18.84-5,26.49-11.55H367l1.53,9.46h16.41V101.58C384.94,77.8,374.44,64.66,353.09,64.66Zm11.82,64.6c-6.32,5.84-11.61,9.25-18.56,9.25-7.17,0-12.31-3.3-12.31-10.85,0-8.62,7.72-14.67,30.87-17.59Z"
            transform="translate(-17.13 -29.33)" fill="#f76e08" />
        <path
            d="M501,137.89c-13.28,0-22.67-11.27-22.67-28.38S487.9,81,501.67,81c5.35,0,9.66,2.29,14.18,6.26l9.74-13a36.54,36.54,0,0,0-25-9.59c-22.75,0-42.84,16.41-42.84,44.85s17.87,44.72,41.17,44.72a42.16,42.16,0,0,0,27.88-10.5l-8.13-13.22C513.84,134.62,507.72,137.89,501,137.89Z"
            transform="translate(-17.13 -29.33)" fill="#f76e08" />
        <path
            d="M586.79,64.66c-11.68,0-20.17,6.19-27.33,12.93l.83-16.48V29.33h-20V152.14h20V92.47c7-7,12-10.64,19.47-10.64,9.25,0,13.29,5.29,13.29,19.34v51h20V98.59C613.08,77,605.08,64.66,586.79,64.66Z"
            transform="translate(-17.13 -29.33)" fill="#f76e08" />
        <path
            d="M420.55,82H420l-1.67-17.25H402.05v87.42h20V100.05c5.14-13,13.35-17.66,20.17-17.66A29.08,29.08,0,0,1,451,83.78l3.48-17.38c-2.58-1.19-5.32-1.74-9.67-1.74C435.67,64.66,426.63,70.85,420.55,82Z"
            transform="translate(-17.13 -29.33)" fill="#f76e08" />
    </symbol>
    <symbol id="week-logo" xmlns="http://www.w3.org/2000/svg"
        viewBox="0 0 374.21 124.9">
        <path
            d="M109.6,111.32c-1.67,8.27-2.92,16.27-4.59,24.62h-.69c-1.88-8.35-3.55-16.35-5.64-24.62L87.28,65H69.13l-11.2,46.33c-2.08,8.07-3.75,16.27-5.42,24.62h-.7c-1.53-8.35-2.78-16.35-4.45-24.62L37,65H16.9l22.53,87.43H62.52l9.67-39.71c2-8,3.41-16,5.08-24.93H78c1.81,8.94,3.34,16.79,5.15,24.79l10,39.85h23.79L138.53,65h-18.7Z"
            transform="translate(-16.9 -29.61)" fill="#00eb00" />
        <path
            d="M182.27,64.93c-20.09,0-39.36,17.11-39.36,44.86,0,28.17,18.5,44.72,42.08,44.72a53,53,0,0,0,29.27-9.25l-6.81-12.45c-6.26,3.89-12.52,6.19-19.82,6.19-13.77,0-23.51-8.63-25.18-23.79h54.21a51.12,51.12,0,0,0,.87-9.73C217.53,81.62,205.36,64.93,182.27,64.93Zm-20,36.65c1.73-13.7,10.5-21.14,20.44-21.14,11.69,0,17.53,8,17.53,21.14Z"
            transform="translate(-16.9 -29.61)" fill="#00eb00" />
        <path
            d="M266.94,64.93c-20.1,0-39.36,17.11-39.36,44.86,0,28.17,18.5,44.72,42.07,44.72a53,53,0,0,0,29.28-9.25l-6.81-12.45C285.86,136.7,279.6,139,272.3,139c-13.77,0-23.51-8.63-25.18-23.79h54.21a52,52,0,0,0,.87-9.73C302.2,81.62,290,64.93,266.94,64.93Zm-20,36.65c1.74-13.7,10.51-21.14,20.45-21.14,11.68,0,17.52,8,17.52,21.14Z"
            transform="translate(-16.9 -29.61)" fill="#00eb00" />
        <polygon
            points="341.94 72.19 372.76 35.4 350.85 35.4 317.67 76.71 317.11 76.71 317.11 0 297.5 0 297.5 122.81 317.11 122.81 317.11 101.12 330.47 85.75 352.44 122.81 374.21 122.81 341.94 72.19"
            fill="#00eb00" />
    </symbol>
    <symbol id="ueg-logo" xmlns="http://www.w3.org/2000/svg" viewBox="0 0 0 0">
    </symbol>
    <symbol id="-logo" xmlns="http://www.w3.org/2000/svg" viewBox="0 0 0 0">
    </symbol>
    <symbol id="week-logo-2020" xmlns="http://www.w3.org/2000/svg"
        viewBox="0 0 378.23 191.37">
        <path
            d="M168.73,39.06c-20.1,0-39.36,17.11-39.36,44.85,0,28.16,18.5,44.71,42.07,44.71a53,53,0,0,0,29.27-9.25l-6.81-12.45c-6.26,3.9-12.52,6.19-19.82,6.19-13.77,0-23.5-8.62-25.17-23.78h54.2A52.11,52.11,0,0,0,204,79.6c0-23.85-12.17-40.54-35.25-40.54m-20,36.64c1.74-13.69,10.5-21.13,20.44-21.13,11.68,0,17.52,8,17.52,21.13Z"
            transform="translate(-3.38 -3.74)" fill="#303335" />
        <path
            d="M253.38,39.06C233.29,39.06,214,56.17,214,83.91c0,28.16,18.5,44.71,42.07,44.71a53,53,0,0,0,29.28-9.25l-6.82-12.45c-6.26,3.9-12.51,6.19-19.81,6.19-13.77,0-23.51-8.62-25.18-23.78h54.2a51.26,51.26,0,0,0,.87-9.73c0-23.85-12.16-40.54-35.25-40.54m-20,36.64c1.73-13.7,10.49-21.13,20.44-21.13,11.68,0,17.52,8,17.52,21.13Z"
            transform="translate(-3.38 -3.74)" fill="#303335" />
        <polygon
            points="341.89 72.17 372.7 35.39 350.8 35.39 317.62 76.69 317.06 76.69 317.06 0 297.46 0 297.46 122.79 317.06 122.79 317.06 101.1 330.41 85.73 352.39 122.79 374.15 122.79 341.89 72.17"
            fill="#303335" />
        <path
            d="M106.29,39.12,96.07,85.44c-1.67,8.27-2.93,16.27-4.59,24.61h-.7c-1.88-8.34-3.55-16.34-5.63-24.61L77.39,53.91,69.28,85.35c.1.45.19.89.3,1.34l10,39.84h23.78L125,39.12Z"
            transform="translate(-3.38 -3.74)" fill="#303335" />
        <path
            d="M22.61,194.32H31.3l12.88-41.49H36.63L30.86,173.7c-.67,2.37-1.25,4.62-1.75,6.73s-1.15,4.38-1.87,6.79H27c-.72-2.41-1.34-4.68-1.87-6.79s-1.13-4.36-1.81-6.73l-5.84-20.87H9.68Zm26.58,0h7.36V152.83H49.19Zm25.25-35.59h5.9a12.44,12.44,0,0,1,6.5,1.4c1.5.93,2.26,2.6,2.26,5a6.39,6.39,0,0,1-2.26,5.33q-2.25,1.77-6.5,1.77h-5.9ZM98,194.32,88.08,177a12.33,12.33,0,0,0,6-4.18,12.18,12.18,0,0,0,2.26-7.68,13,13,0,0,0-1.18-5.83,9.92,9.92,0,0,0-3.2-3.78,13.32,13.32,0,0,0-4.82-2.06,26.89,26.89,0,0,0-6-.64h-14v41.49H74.5V178.08h6.34l9,16.24Zm14.21,0h7.36V159.05h12v-6.22H100.2v6.22h12Zm26.07-18.21a29.94,29.94,0,0,0,1.11,8.73,15.53,15.53,0,0,0,3.17,5.87,12.2,12.2,0,0,0,4.95,3.33,20.79,20.79,0,0,0,13,0,12.2,12.2,0,0,0,5-3.33,15.2,15.2,0,0,0,3.14-5.87,30.61,30.61,0,0,0,1.08-8.73V152.83h-7v23.85a21.38,21.38,0,0,1-.64,5.69,9.83,9.83,0,0,1-1.77,3.7,6.39,6.39,0,0,1-2.73,2,9.48,9.48,0,0,1-3.49.61,9.13,9.13,0,0,1-3.43-.61,6.26,6.26,0,0,1-2.63-2,9.78,9.78,0,0,1-1.71-3.7,22.7,22.7,0,0,1-.6-5.69V152.83h-7.36Zm47.83,1.21,1.46-5.08c.68-2.19,1.31-4.45,1.9-6.75s1.19-4.62,1.78-7h.25c.59,2.29,1.2,4.59,1.81,6.92s1.26,4.59,1.94,6.78l1.45,5.08Zm15.48,17h7.74L195.8,152.83h-8.63l-13.51,41.49h7.48l3.24-11.23h14Zm12.88,0h24.61V188.1H221.81V152.83h-7.36Zm42,0h27.28V188.1h-9.89c-1,0-2.08.06-3.31.17l-3.42.28c2-2.11,3.87-4.17,5.65-6.15a66.57,66.57,0,0,0,4.66-5.81,29.84,29.84,0,0,0,3.17-5.58,13.9,13.9,0,0,0,1.17-5.43,13.32,13.32,0,0,0-.92-5.07,11.25,11.25,0,0,0-2.56-3.9,11.38,11.38,0,0,0-4-2.51,15,15,0,0,0-5.27-.89,14.58,14.58,0,0,0-7.13,1.62,23.2,23.2,0,0,0-5.74,4.6l4,4.06a20.44,20.44,0,0,1,3.59-3.17A7.35,7.35,0,0,1,268,159a6.35,6.35,0,0,1,5,1.87,7.28,7.28,0,0,1,1.71,5.1,10.69,10.69,0,0,1-1.27,4.82,29.83,29.83,0,0,1-3.64,5.46q-2.38,2.92-5.78,6.34t-7.58,7.49Zm56.4-4.66q3.67-5.43,3.68-15.7t-3.68-15.48a12.19,12.19,0,0,0-20.05,0q-3.68,5.24-3.68,15.51t3.68,15.7a12,12,0,0,0,20.05,0m-12.72-1.08A6.14,6.14,0,0,1,298,186a18.45,18.45,0,0,1-1.39-4.76,43.73,43.73,0,0,1-.51-7.23,42.66,42.66,0,0,1,.51-7.14,17.27,17.27,0,0,1,1.39-4.66,5.72,5.72,0,0,1,2.13-2.51,5.36,5.36,0,0,1,5.39,0,5.7,5.7,0,0,1,2.12,2.51,16.94,16.94,0,0,1,1.4,4.66,42.66,42.66,0,0,1,.51,7.14,43.73,43.73,0,0,1-.51,7.23,18.35,18.35,0,0,1-1.4,4.76,6.13,6.13,0,0,1-2.12,2.63,5,5,0,0,1-5.39,0m21.41,5.74h27.28V188.1h-9.9c-1,0-2.07.06-3.3.17l-3.42.28c2-2.11,3.86-4.17,5.64-6.15a66.57,66.57,0,0,0,4.66-5.81,29.89,29.89,0,0,0,3.18-5.58,13.9,13.9,0,0,0,1.17-5.43,13.55,13.55,0,0,0-.92-5.07,11,11,0,0,0-6.57-6.41,16.32,16.32,0,0,0-12.4.73,23.38,23.38,0,0,0-5.74,4.6l4.06,4.06a20,20,0,0,1,3.59-3.17,7.35,7.35,0,0,1,4.28-1.33,6.35,6.35,0,0,1,5,1.87,7.28,7.28,0,0,1,1.71,5.1,10.69,10.69,0,0,1-1.27,4.82,29.88,29.88,0,0,1-3.65,5.46,84.73,84.73,0,0,1-5.77,6.34q-3.41,3.42-7.58,7.49Zm56.39-4.66q3.69-5.43,3.68-15.7t-3.68-15.48a12.18,12.18,0,0,0-20,0q-3.69,5.24-3.68,15.51t3.68,15.7a12,12,0,0,0,20,0m-12.72-1.08a6.13,6.13,0,0,1-2.12-2.63,18.06,18.06,0,0,1-1.39-4.76,43.73,43.73,0,0,1-.51-7.23,42.66,42.66,0,0,1,.51-7.14,17.27,17.27,0,0,1,1.39-4.66,5.88,5.88,0,0,1,2.12-2.51,5.37,5.37,0,0,1,5.4,0,5.88,5.88,0,0,1,2.12,2.51,17.65,17.65,0,0,1,1.4,4.66,43.73,43.73,0,0,1,.5,7.14,44.83,44.83,0,0,1-.5,7.23,18.47,18.47,0,0,1-1.4,4.76,6.13,6.13,0,0,1-2.12,2.63,5,5,0,0,1-5.4,0"
            transform="translate(-3.38 -3.74)" fill="#00eb00" />
        <polygon
            points="22.51 122.79 45.61 122.79 45.59 122.77 68.12 35.38 48.02 35.38 34.06 97.82 20.09 35.38 0 35.38 22.52 122.77 22.51 122.79"
            fill="#00eb00" />
    </symbol>
    <symbol id="week-logo-2021" xmlns="http://www.w3.org/2000/svg"
        viewBox="0 0 374.22 191.5">
        <path
            d="M107.29,129.51l21.62-87.4h-18.7L100,88.42c-1.67,8.27-2.92,16.27-4.59,24.61h-.69c-1.88-8.34-3.55-16.34-5.64-24.61L81.31,56.9l-8.1,31.44c.1.44.19.89.29,1.33l10,39.84Zm83.28-50.82H152.62c1.73-13.7,10.49-21.13,20.44-21.13,11.67,0,17.51,8,17.51,21.13M207,92.31a51.26,51.26,0,0,0,.87-9.73c0-23.84-12.17-40.53-35.24-40.53-20.09,0-39.35,17.11-39.35,44.84,0,28.16,18.49,44.7,42.06,44.7a53,53,0,0,0,29.27-9.24L197.8,109.9c-6.25,3.9-12.51,6.19-19.81,6.19-13.76,0-23.5-8.62-25.17-23.78Zm68.2-13.62h-38C239,65,247.75,57.56,257.69,57.56c11.68,0,17.52,8,17.52,21.13m16.44,13.62a51.26,51.26,0,0,0,.87-9.73c0-23.84-12.16-40.53-35.25-40.53-20.09,0-39.34,17.11-39.34,44.84,0,28.16,18.49,44.7,42.06,44.7a53,53,0,0,0,29.26-9.24l-6.81-12.45c-6.26,3.9-12.51,6.19-19.81,6.19-13.77,0-23.5-8.62-25.17-23.78ZM349.14,78.9,380,42.12H358.1l-33.17,41.3h-.56V6.74h-19.6V129.51h19.6V107.82l13.35-15.37,22,37.06H381.4Z"
            transform="translate(-7.32 -6.74)" fill="#303335" />
        <path
            d="M62.48,156H55.13v41.48h7.35Zm-41.29,0h-7.8l12.94,41.48H35L47.89,156H40.35l-5.78,20.87q-.95,3.54-1.74,6.72T31,190.34h-.26c-.71-2.41-1.34-4.67-1.87-6.78s-1.13-4.36-1.8-6.72Zm31.72-26.49L75.43,42.14H55.34l-14,62.43-14-62.43h-20l22.52,87.38H52.91ZM95,173.6a10.36,10.36,0,0,1-6.5,1.78H82.6V161.87h5.9a12.53,12.53,0,0,1,6.5,1.39q2.25,1.4,2.25,5A6.38,6.38,0,0,1,95,173.6m11.13,23.85-9.89-17.32a11.54,11.54,0,0,0,8.25-11.86,13,13,0,0,0-1.18-5.83,9.92,9.92,0,0,0-3.2-3.78,13.75,13.75,0,0,0-4.82-2.06,27.48,27.48,0,0,0-6-.63h-14v41.48h7.35V181.21H89l8.94,16.24Zm23.79-35.27h12V156H110.57v6.21h12v35.27h7.35Zm49,25.79a30.58,30.58,0,0,0,1.08-8.72V156h-7v23.85a21.23,21.23,0,0,1-.64,5.67,9.87,9.87,0,0,1-1.77,3.71,6.39,6.39,0,0,1-2.73,2,9.9,9.9,0,0,1-3.49.6,9.27,9.27,0,0,1-3.42-.6,6.26,6.26,0,0,1-2.63-2,9.84,9.84,0,0,1-1.72-3.71,22.54,22.54,0,0,1-.6-5.67V156h-7.36v23.28a29.87,29.87,0,0,0,1.11,8.72,15.49,15.49,0,0,0,3.17,5.86,12.2,12.2,0,0,0,5,3.33,20.64,20.64,0,0,0,13,0,12.2,12.2,0,0,0,5-3.33A15.08,15.08,0,0,0,179,188m30.32-7.52H198.67l1.46-5.07c.67-2.2,1.31-4.46,1.9-6.76s1.18-4.62,1.77-6.94h.26c.59,2.28,1.19,4.59,1.81,6.91s1.25,4.59,1.93,6.79Zm4.88,17H222L208.37,156h-8.62l-13.51,41.48h7.48L197,186.22h14Zm15.1,0h24.61v-6.22H236.6V156h-7.36Zm40.41,0H297v-6.22H287c-1,0-2.08.05-3.3.16l-3.43.29q3-3.18,5.65-6.16a65,65,0,0,0,4.66-5.8,29.84,29.84,0,0,0,3.17-5.58,13.85,13.85,0,0,0,1.17-5.42,13.56,13.56,0,0,0-.92-5.08,11,11,0,0,0-6.56-6.4,15,15,0,0,0-5.27-.89A14.58,14.58,0,0,0,275,158a23.16,23.16,0,0,0-5.74,4.59l4.06,4.06a20.74,20.74,0,0,1,3.58-3.17,7.35,7.35,0,0,1,4.28-1.33,6.38,6.38,0,0,1,5,1.87,7.31,7.31,0,0,1,1.71,5.11,10.69,10.69,0,0,1-1.27,4.82A29.76,29.76,0,0,1,283,179.4q-2.38,2.92-5.77,6.35t-7.58,7.48Zm53.08-20.36a43.73,43.73,0,0,1-.51,7.23,18.85,18.85,0,0,1-1.39,4.76,6.15,6.15,0,0,1-2.13,2.63,5,5,0,0,1-5.39,0,6.33,6.33,0,0,1-2.12-2.63,18.47,18.47,0,0,1-1.4-4.76,42.67,42.67,0,0,1-.5-7.23,41.62,41.62,0,0,1,.5-7.14,17.65,17.65,0,0,1,1.4-4.66,5.79,5.79,0,0,1,2.12-2.5,5.25,5.25,0,0,1,2.7-.74,5.09,5.09,0,0,1,2.69.74,5.75,5.75,0,0,1,2.13,2.5,17.27,17.27,0,0,1,1.39,4.66,42.66,42.66,0,0,1,.51,7.14m3.3,15.69q3.67-5.42,3.68-15.69T326,161.61a12.19,12.19,0,0,0-20,0q-3.67,5.23-3.68,15.51T306,192.78a12,12,0,0,0,20,0m8.69,4.67H362v-6.22h-9.9c-1,0-2.07.05-3.3.16l-3.43.29q3-3.18,5.65-6.16a65,65,0,0,0,4.66-5.8,29.84,29.84,0,0,0,3.17-5.58,13.86,13.86,0,0,0,1.18-5.42,13.56,13.56,0,0,0-.92-5.08,11.57,11.57,0,0,0-2.57-3.9,11.21,11.21,0,0,0-4-2.5,16.32,16.32,0,0,0-12.4.73,23.58,23.58,0,0,0-5.74,4.59l4.06,4.06a20.74,20.74,0,0,1,3.58-3.17,7.4,7.4,0,0,1,4.29-1.33,6.37,6.37,0,0,1,4.94,1.87A7.28,7.28,0,0,1,353,169.1a10.84,10.84,0,0,1-1.26,4.82,30.15,30.15,0,0,1-3.65,5.45q-2.38,2.92-5.77,6.35t-7.58,7.48Zm46.81-6V157.11h-5.45A23.31,23.31,0,0,1,372,159a39.37,39.37,0,0,1-5.57,1.37V165h8.17v32.48h6.94Z"
            transform="translate(-7.32 -6.74)" fill="#00eb00" />
    </symbol>
</svg>